<svg xmlns="http://www.w3.org/2000/svg" viewBox="0 0 800 600" role="img" aria-labelledby="title desc">
  <title id="title">Antioxidant rich foods</title>
  <desc id="desc">Berries, colorful fruits, and vegetables.</desc>
  <defs>
    <linearGradient id="bg" x1="0" x2="1" y1="0" y2="1"><stop stop-color="#fdf2f8"/><stop offset="1" stop-color="#eff6ff"/></linearGradient>
    <filter id="s"><feDropShadow dx="0" dy="18" stdDeviation="16" flood-color="#7f1d1d" flood-opacity=".14"/></filter>
  </defs>
  <rect width="800" height="600" fill="url(#bg)"/>
  <ellipse cx="400" cy="350" rx="285" ry="130" fill="#fff" filter="url(#s)"/>
  <g>
    <circle cx="265" cy="323" r="55" fill="#1d4ed8"/>
    <circle cx="335" cy="279" r="48" fill="#7c3aed"/>
    <circle cx="397" cy="340" r="62" fill="#dc2626"/>
    <circle cx="477" cy="285" r="51" fill="#be123c"/>
    <circle cx="548" cy="351" r="58" fill="#ef4444"/>
    <circle cx="332" cy="394" r="44" fill="#2563eb"/>
    <circle cx="471" cy="412" r="48" fill="#b91c1c"/>
  </g>
  <g fill="#fff" opacity=".42">
    <circle cx="245" cy="303" r="13"/><circle cx="382" cy="314" r="16"/><circle cx="530" cy="326" r="15"/>
    <circle cx="323" cy="260" r="11"/><circle cx="456" cy="389" r="12"/>
  </g>
  <path d="M491 217c40-41 97-38 129 5-42 14-86 12-129-5Z" fill="#16a34a"/>
  <path d="M190 251c33-33 80-28 105 7-37 10-72 7-105-7Z" fill="#22c55e"/>
</svg>
