<svg xmlns="http://www.w3.org/2000/svg" viewBox="0 0 800 600" role="img" aria-labelledby="title desc">
  <title id="title">Hydration basics</title>
  <desc id="desc">Water bottle, glass of water, lemon, cucumber, and mint.</desc>
  <defs>
    <linearGradient id="bg" x1="0" x2="1" y1="0" y2="1"><stop stop-color="#eff6ff"/><stop offset="1" stop-color="#dcfce7"/></linearGradient>
    <linearGradient id="water" x1="0" x2="1"><stop stop-color="#bfdbfe"/><stop offset="1" stop-color="#38bdf8"/></linearGradient>
  </defs>
  <rect width="800" height="600" fill="url(#bg)"/>
  <rect x="356" y="124" width="110" height="330" rx="39" fill="#e0f2fe" stroke="#93c5fd" stroke-width="10"/>
  <rect x="379" y="71" width="64" height="70" rx="16" fill="#bfdbfe" stroke="#93c5fd" stroke-width="8"/>
  <path d="M365 281h92v139c0 22-18 40-40 40h-12c-22 0-40-18-40-40V281Z" fill="url(#water)" opacity=".85"/>
  <rect x="159" y="297" width="148" height="151" rx="26" fill="#f8fafc" stroke="#bfdbfe" stroke-width="10"/>
  <path d="M176 370h114v54c0 15-13 28-28 28h-58c-15 0-28-13-28-28v-54Z" fill="#7dd3fc" opacity=".7"/>
  <circle cx="560" cy="397" r="58" fill="#fde68a" stroke="#facc15" stroke-width="10"/>
  <path d="M560 343v108M506 397h108M522 359l76 76M598 359l-76 76" stroke="#f59e0b" stroke-width="6"/>
  <ellipse cx="637" cy="317" rx="57" ry="23" fill="#22c55e" transform="rotate(-21 637 317)"/>
  <path d="M606 311c37-2 65 1 92 18" stroke="#166534" stroke-width="6" fill="none"/>
  <path d="M588 242c34-36 82-33 109 3-38 12-74 12-109-3Z" fill="#16a34a"/>
</svg>
