<svg xmlns="http://www.w3.org/2000/svg" viewBox="0 0 800 600" role="img" aria-labelledby="title desc">
  <title id="title">Digestive system illustration</title>
  <desc id="desc">Clean professional illustration of the gastrointestinal system.</desc>
  <defs>
    <linearGradient id="bg" x1="0" x2="1" y1="0" y2="1"><stop stop-color="#0f172a"/><stop offset=".55" stop-color="#1e3a8a"/><stop offset="1" stop-color="#f9a8d4"/></linearGradient>
    <filter id="glow"><feGaussianBlur stdDeviation="5" result="b"/><feMerge><feMergeNode in="b"/><feMergeNode in="SourceGraphic"/></feMerge></filter>
  </defs>
  <rect width="800" height="600" fill="url(#bg)"/>
  <path d="M400 62c96 0 174 78 174 174v203c0 55-45 100-100 100H326c-55 0-100-45-100-100V236c0-96 78-174 174-174Z" fill="#ffffff" opacity=".08" stroke="#bfdbfe" stroke-width="4"/>
  <path d="M352 145c72 0 128 47 128 106 0 43-26 70-71 76-53 7-89-19-99-58-15-57 5-124 42-124Z" fill="#fca5a5" opacity=".92" filter="url(#glow)"/>
  <path d="M384 329c98-23 177 31 177 109 0 64-55 94-142 94H305c-53 0-96-34-96-76 0-49 53-77 105-57 18-37 43-61 70-70Z" fill="#fb7185" opacity=".9"/>
  <g fill="none" stroke="#fecdd3" stroke-width="24" stroke-linecap="round">
    <path d="M307 412c51-25 122-16 148 21 23 34-7 70-62 65"/>
    <path d="M277 455c34 44 112 38 138-7"/>
    <path d="M422 379c56 6 92 34 97 76"/>
  </g>
  <path d="M488 280c83 8 130 60 113 129" fill="none" stroke="#fdba74" stroke-width="26" stroke-linecap="round"/>
  <circle cx="334" cy="175" r="13" fill="#fff7ed"/>
</svg>
