<svg xmlns="http://www.w3.org/2000/svg" viewBox="0 0 800 600" role="img" aria-labelledby="title desc">
  <title id="title">Mind gut connection</title>
  <desc id="desc">Brain and digestive system connected by a subtle clinical line.</desc>
  <defs>
    <linearGradient id="bg" x1="0" x2="1" y1="0" y2="1"><stop stop-color="#0f172a"/><stop offset=".6" stop-color="#1e3a8a"/><stop offset="1" stop-color="#312e81"/></linearGradient>
    <filter id="g"><feGaussianBlur stdDeviation="4" result="b"/><feMerge><feMergeNode in="b"/><feMergeNode in="SourceGraphic"/></feMerge></filter>
  </defs>
  <rect width="800" height="600" fill="url(#bg)"/>
  <path d="M331 111c85-42 199 16 192 118-5 75-77 107-147 80-68-27-112-122-45-198Z" fill="#f9a8d4" opacity=".85" filter="url(#g)"/>
  <path d="M350 158c34-23 87-12 103 22M332 214c41-28 109-16 137 27M397 119c-10 43 1 80 32 109" stroke="#fecdd3" stroke-width="14" fill="none" stroke-linecap="round"/>
  <path d="M421 311c-44 47-50 93-18 139" stroke="#93c5fd" stroke-width="12" fill="none" stroke-linecap="round" stroke-dasharray="18 20"/>
  <path d="M353 384c96-22 176 33 176 107 0 41-34 65-86 65h-96c-48 0-84-29-84-66 0-42 44-66 93-48 9-25 24-45 47-58Z" fill="#fb7185" opacity=".9" filter="url(#g)"/>
  <g fill="none" stroke="#fecdd3" stroke-width="20" stroke-linecap="round">
    <path d="M339 468c43-22 107-13 131 18"/>
    <path d="M329 512c50 30 100 22 130-15"/>
  </g>
</svg>
