<svg xmlns="http://www.w3.org/2000/svg" viewBox="0 0 800 600" role="img" aria-labelledby="title desc">
  <title id="title">Vitamin D foods</title>
  <desc id="desc">Sunlight with salmon, eggs, mushrooms, and fortified milk.</desc>
  <defs>
    <linearGradient id="bg" x1="0" x2="1" y1="0" y2="1"><stop stop-color="#fff7ed"/><stop offset="1" stop-color="#dbeafe"/></linearGradient>
    <filter id="shadow"><feDropShadow dx="0" dy="18" stdDeviation="16" flood-color="#92400e" flood-opacity=".16"/></filter>
  </defs>
  <rect width="800" height="600" fill="url(#bg)"/>
  <circle cx="645" cy="125" r="88" fill="#fbbf24"/>
  <g stroke="#f59e0b" stroke-linecap="round" stroke-width="16">
    <path d="M645 10v55M645 185v55M530 125h55M705 125h55M563 43l39 39M688 168l39 39M727 43l-39 39M602 168l-39 39"/>
  </g>
  <ellipse cx="400" cy="414" rx="290" ry="105" fill="#ffffff" filter="url(#shadow)"/>
  <path d="M124 335c100-83 233-92 352-22-69 92-209 144-331 89-31-14-37-46-21-67Z" fill="#fb7185"/>
  <path d="M175 341c81-49 168-53 261-9" fill="none" stroke="#fed7aa" stroke-width="18" opacity=".75"/>
  <rect x="515" y="250" width="96" height="176" rx="23" fill="#f8fafc" stroke="#bfdbfe" stroke-width="10"/>
  <rect x="535" y="205" width="56" height="58" rx="14" fill="#bfdbfe"/>
  <ellipse cx="626" cy="410" rx="52" ry="35" fill="#fef3c7"/>
  <ellipse cx="626" cy="410" rx="26" ry="18" fill="#f59e0b"/>
  <g fill="#f5f5dc">
    <path d="M272 222c35-31 91 8 68 47-20 33-82 12-68-47Z"/>
    <path d="M358 205c47-3 68 61 25 82-37 18-74-34-25-82Z"/>
    <path d="M430 229c39-26 85 22 54 57-28 31-82-1-54-57Z"/>
  </g>
</svg>
